<svg id="visual" viewBox="0 0 960 40" preserveAspectRatio="none" xmlns="http://www.w3.org/2000/svg" xmlns:xlink="http://www.w3.org/1999/xlink" version="1.1">
  
  <path d="M0 502L16 501.5C32 501 64 500 96 501C128 502 160 505 192 505.7C224 506.3 256 504.7 288 503.3C320 502 352 501 384 501.2C416 501.3 448 502.7 480 502.8C512 503 544 502 576 501.2C608 500.3 640 499.7 672 500C704 500.3 736 501.7 768 503.2C800 504.7 832 506.3 864 505.8C896 505.3 928 502.7 944 501.3L960 500L960 541L944 541C928 541 896 541 864 541C832 541 800 541 768 541C736 541 704 541 672 541C640 541 608 541 576 541C544 541 512 541 480 541C448 541 416 541 384 541C352 541 320 541 288 541C256 541 224 541 192 541C160 541 128 541 96 541C64 541 32 541 16 541L0 541Z" fill="#c02424" transform="translate(0 -500)"></path>
  
  <path d="M0 506L16 506.8C32 507.7 64 509.3 96 510.3C128 511.3 160 511.7 192 510.8C224 510 256 508 288 507.7C320 507.3 352 508.7 384 509.3C416 510 448 510 480 509.3C512 508.7 544 507.3 576 506.3C608 505.3 640 504.7 672 505C704 505.3 736 506.7 768 507.8C800 509 832 510 864 509.8C896 509.7 928 508.3 944 507.7L960 507L960 541L944 541C928 541 896 541 864 541C832 541 800 541 768 541C736 541 704 541 672 541C640 541 608 541 576 541C544 541 512 541 480 541C448 541 416 541 384 541C352 541 320 541 288 541C256 541 224 541 192 541C160 541 128 541 96 541C64 541 32 541 16 541L0 541Z" fill="#a82522" transform="translate(0 -500)"></path>
  
  <path d="M0 508L16 508.8C32 509.7 64 511.3 96 511.3C128 511.3 160 509.7 192 508.7C224 507.7 256 507.3 288 508.2C320 509 352 511 384 511.5C416 512 448 511 480 511.3C512 511.7 544 513.3 576 512.8C608 512.3 640 509.7 672 508.5C704 507.3 736 507.7 768 507.8C800 508 832 508 864 508.2C896 508.3 928 508.7 944 508.8L960 509L960 541L944 541C928 541 896 541 864 541C832 541 800 541 768 541C736 541 704 541 672 541C640 541 608 541 576 541C544 541 512 541 480 541C448 541 416 541 384 541C352 541 320 541 288 541C256 541 224 541 192 541C160 541 128 541 96 541C64 541 32 541 16 541L0 541Z" fill="#912520" transform="translate(0 -500)"></path>
  
  <path d="M0 512L16 512.7C32 513.3 64 514.7 96 515C128 515.3 160 514.7 192 514.2C224 513.7 256 513.3 288 512.8C320 512.3 352 511.7 384 511.7C416 511.7 448 512.3 480 512.8C512 513.3 544 513.7 576 513.7C608 513.7 640 513.3 672 513.3C704 513.3 736 513.7 768 514C800 514.3 832 514.7 864 515.2C896 515.7 928 516.3 944 516.7L960 517L960 541L944 541C928 541 896 541 864 541C832 541 800 541 768 541C736 541 704 541 672 541C640 541 608 541 576 541C544 541 512 541 480 541C448 541 416 541 384 541C352 541 320 541 288 541C256 541 224 541 192 541C160 541 128 541 96 541C64 541 32 541 16 541L0 541Z" fill="#7b241e" transform="translate(0 -500)"></path>
  
  <path d="M0 515L16 516.2C32 517.3 64 519.7 96 520.3C128 521 160 520 192 519.2C224 518.3 256 517.7 288 517.8C320 518 352 519 384 519.5C416 520 448 520 480 519.2C512 518.3 544 516.7 576 515.8C608 515 640 515 672 515.7C704 516.3 736 517.7 768 518.8C800 520 832 521 864 521.3C896 521.7 928 521.3 944 521.2L960 521L960 541L944 541C928 541 896 541 864 541C832 541 800 541 768 541C736 541 704 541 672 541C640 541 608 541 576 541C544 541 512 541 480 541C448 541 416 541 384 541C352 541 320 541 288 541C256 541 224 541 192 541C160 541 128 541 96 541C64 541 32 541 16 541L0 541Z" fill="#65221c" transform="translate(0 -500)"></path>

  </svg>